<mxfile host="app.diagrams.net" modified="2022-04-17T12:25:33.924Z" agent="5.0 (Windows NT 10.0; Win64; x64) AppleWebKit/537.36 (KHTML, like Gecko) Chrome/100.0.4896.88 Safari/537.36" etag="xg-w9hP2C7lEqymEq-_k" version="17.4.5" type="github">
  <diagram id="jshnRrYS78c5xzt8QJoU" name="Page-1">
    <mxGraphModel dx="1662" dy="762" grid="1" gridSize="10" guides="1" tooltips="1" connect="1" arrows="1" fold="1" page="1" pageScale="1" pageWidth="827" pageHeight="1169" math="0" shadow="0">
      <root>
        <mxCell id="0" />
        <mxCell id="1" parent="0" />
        <mxCell id="j7_Tk4m8kdzE1LREcDd7-1" value="16&lt;br&gt;source port" style="rounded=0;whiteSpace=wrap;html=1;" vertex="1" parent="1">
          <mxGeometry x="30" y="380" width="120" height="60" as="geometry" />
        </mxCell>
        <mxCell id="j7_Tk4m8kdzE1LREcDd7-2" value="16&lt;br&gt;destination  port" style="rounded=0;whiteSpace=wrap;html=1;" vertex="1" parent="1">
          <mxGeometry x="150" y="380" width="120" height="60" as="geometry" />
        </mxCell>
        <mxCell id="j7_Tk4m8kdzE1LREcDd7-3" value="32&lt;br&gt;sequence number" style="rounded=0;whiteSpace=wrap;html=1;" vertex="1" parent="1">
          <mxGeometry x="30" y="440" width="240" height="60" as="geometry" />
        </mxCell>
        <mxCell id="j7_Tk4m8kdzE1LREcDd7-4" value="32&lt;br&gt;acknowledgement number" style="rounded=0;whiteSpace=wrap;html=1;" vertex="1" parent="1">
          <mxGeometry x="30" y="500" width="240" height="60" as="geometry" />
        </mxCell>
        <mxCell id="j7_Tk4m8kdzE1LREcDd7-5" value="data&lt;br&gt;offset" style="rounded=0;whiteSpace=wrap;html=1;" vertex="1" parent="1">
          <mxGeometry x="30" y="560" width="30" height="60" as="geometry" />
        </mxCell>
        <mxCell id="j7_Tk4m8kdzE1LREcDd7-6" value="SYN&lt;br&gt;ACK&lt;br&gt;FIN" style="rounded=0;whiteSpace=wrap;html=1;" vertex="1" parent="1">
          <mxGeometry x="90" y="560" width="60" height="60" as="geometry" />
        </mxCell>
        <mxCell id="j7_Tk4m8kdzE1LREcDd7-7" value="tcp checksum" style="rounded=0;whiteSpace=wrap;html=1;" vertex="1" parent="1">
          <mxGeometry x="30" y="620" width="120" height="60" as="geometry" />
        </mxCell>
        <mxCell id="j7_Tk4m8kdzE1LREcDd7-10" value="recv" style="rounded=0;whiteSpace=wrap;html=1;" vertex="1" parent="1">
          <mxGeometry x="60" y="560" width="30" height="60" as="geometry" />
        </mxCell>
        <mxCell id="j7_Tk4m8kdzE1LREcDd7-11" value="window size" style="rounded=0;whiteSpace=wrap;html=1;" vertex="1" parent="1">
          <mxGeometry x="150" y="560" width="120" height="60" as="geometry" />
        </mxCell>
        <mxCell id="j7_Tk4m8kdzE1LREcDd7-12" value="urgent pointor" style="rounded=0;whiteSpace=wrap;html=1;" vertex="1" parent="1">
          <mxGeometry x="150" y="620" width="120" height="60" as="geometry" />
        </mxCell>
        <mxCell id="j7_Tk4m8kdzE1LREcDd7-13" value="options" style="rounded=0;whiteSpace=wrap;html=1;" vertex="1" parent="1">
          <mxGeometry x="30" y="680" width="240" height="60" as="geometry" />
        </mxCell>
        <mxCell id="j7_Tk4m8kdzE1LREcDd7-17" value="client" style="rounded=0;whiteSpace=wrap;html=1;" vertex="1" parent="1">
          <mxGeometry x="370" y="230" width="120" height="370" as="geometry" />
        </mxCell>
        <mxCell id="j7_Tk4m8kdzE1LREcDd7-18" value="server" style="rounded=0;whiteSpace=wrap;html=1;" vertex="1" parent="1">
          <mxGeometry x="860" y="230" width="120" height="370" as="geometry" />
        </mxCell>
        <mxCell id="j7_Tk4m8kdzE1LREcDd7-19" value="" style="endArrow=classic;html=1;rounded=0;exitX=1.025;exitY=0.1;exitDx=0;exitDy=0;exitPerimeter=0;entryX=0.017;entryY=0.097;entryDx=0;entryDy=0;entryPerimeter=0;" edge="1" parent="1" source="j7_Tk4m8kdzE1LREcDd7-17" target="j7_Tk4m8kdzE1LREcDd7-18">
          <mxGeometry width="50" height="50" relative="1" as="geometry">
            <mxPoint x="730" y="320" as="sourcePoint" />
            <mxPoint x="780" y="270" as="targetPoint" />
          </mxGeometry>
        </mxCell>
        <mxCell id="j7_Tk4m8kdzE1LREcDd7-20" value="SYN=1 seq=x" style="text;html=1;align=center;verticalAlign=middle;resizable=0;points=[];autosize=1;strokeColor=none;fillColor=none;" vertex="1" parent="1">
          <mxGeometry x="605" y="230" width="90" height="20" as="geometry" />
        </mxCell>
        <mxCell id="j7_Tk4m8kdzE1LREcDd7-21" value="SYN_SENT" style="text;html=1;strokeColor=none;fillColor=none;align=center;verticalAlign=middle;whiteSpace=wrap;rounded=0;" vertex="1" parent="1">
          <mxGeometry x="500" y="230" width="60" height="30" as="geometry" />
        </mxCell>
        <mxCell id="j7_Tk4m8kdzE1LREcDd7-22" value="" style="endArrow=classic;html=1;rounded=0;entryX=1;entryY=0.75;entryDx=0;entryDy=0;exitX=0;exitY=0.25;exitDx=0;exitDy=0;" edge="1" parent="1" source="j7_Tk4m8kdzE1LREcDd7-18" target="j7_Tk4m8kdzE1LREcDd7-17">
          <mxGeometry width="50" height="50" relative="1" as="geometry">
            <mxPoint x="730" y="320" as="sourcePoint" />
            <mxPoint x="780" y="270" as="targetPoint" />
          </mxGeometry>
        </mxCell>
        <mxCell id="j7_Tk4m8kdzE1LREcDd7-23" value="SYN=1 ACK=1 ack=x+1 seq=y" style="text;html=1;align=center;verticalAlign=middle;resizable=0;points=[];autosize=1;strokeColor=none;fillColor=none;" vertex="1" parent="1">
          <mxGeometry x="600" y="440" width="180" height="20" as="geometry" />
        </mxCell>
        <mxCell id="j7_Tk4m8kdzE1LREcDd7-25" value="SYN_RECV" style="text;html=1;strokeColor=none;fillColor=none;align=center;verticalAlign=middle;whiteSpace=wrap;rounded=0;" vertex="1" parent="1">
          <mxGeometry x="770" y="295" width="60" height="30" as="geometry" />
        </mxCell>
        <mxCell id="j7_Tk4m8kdzE1LREcDd7-26" value="" style="endArrow=classic;html=1;rounded=0;" edge="1" parent="1">
          <mxGeometry width="50" height="50" relative="1" as="geometry">
            <mxPoint x="490" y="560" as="sourcePoint" />
            <mxPoint x="860" y="560" as="targetPoint" />
          </mxGeometry>
        </mxCell>
        <mxCell id="j7_Tk4m8kdzE1LREcDd7-27" value="&amp;nbsp;ACK=1 ack=y+1&amp;nbsp;" style="text;html=1;align=center;verticalAlign=middle;resizable=0;points=[];autosize=1;strokeColor=none;fillColor=none;" vertex="1" parent="1">
          <mxGeometry x="621" y="540" width="110" height="20" as="geometry" />
        </mxCell>
        <mxCell id="j7_Tk4m8kdzE1LREcDd7-28" value="ESTABLELISHED" style="text;html=1;align=center;verticalAlign=middle;resizable=0;points=[];autosize=1;strokeColor=none;fillColor=none;" vertex="1" parent="1">
          <mxGeometry x="495" y="530" width="110" height="20" as="geometry" />
        </mxCell>
        <mxCell id="j7_Tk4m8kdzE1LREcDd7-29" value="&lt;span style=&quot;color: rgb(0, 0, 0); font-family: helvetica; font-size: 12px; font-style: normal; font-weight: 400; letter-spacing: normal; text-align: center; text-indent: 0px; text-transform: none; word-spacing: 0px; background-color: rgb(248, 249, 250); display: inline; float: none;&quot;&gt;ESTABLELISHED&lt;/span&gt;" style="text;whiteSpace=wrap;html=1;" vertex="1" parent="1">
          <mxGeometry x="750" y="530" width="120" height="30" as="geometry" />
        </mxCell>
        <mxCell id="j7_Tk4m8kdzE1LREcDd7-30" value="client" style="rounded=0;whiteSpace=wrap;html=1;" vertex="1" parent="1">
          <mxGeometry x="370" y="670" width="120" height="370" as="geometry" />
        </mxCell>
        <mxCell id="j7_Tk4m8kdzE1LREcDd7-31" value="server" style="rounded=0;whiteSpace=wrap;html=1;" vertex="1" parent="1">
          <mxGeometry x="860" y="670" width="120" height="370" as="geometry" />
        </mxCell>
        <mxCell id="j7_Tk4m8kdzE1LREcDd7-34" value="" style="endArrow=classic;html=1;rounded=0;entryX=0.008;entryY=0.078;entryDx=0;entryDy=0;entryPerimeter=0;" edge="1" parent="1" target="j7_Tk4m8kdzE1LREcDd7-31">
          <mxGeometry width="50" height="50" relative="1" as="geometry">
            <mxPoint x="490" y="700" as="sourcePoint" />
            <mxPoint x="540" y="650" as="targetPoint" />
          </mxGeometry>
        </mxCell>
        <mxCell id="j7_Tk4m8kdzE1LREcDd7-35" value="FIN=1 seq=x" style="text;html=1;align=center;verticalAlign=middle;resizable=0;points=[];autosize=1;strokeColor=none;fillColor=none;" vertex="1" parent="1">
          <mxGeometry x="610" y="670" width="80" height="20" as="geometry" />
        </mxCell>
        <mxCell id="j7_Tk4m8kdzE1LREcDd7-36" value="" style="endArrow=classic;html=1;rounded=0;entryX=1;entryY=0.441;entryDx=0;entryDy=0;entryPerimeter=0;exitX=0;exitY=0.186;exitDx=0;exitDy=0;exitPerimeter=0;" edge="1" parent="1" source="j7_Tk4m8kdzE1LREcDd7-31" target="j7_Tk4m8kdzE1LREcDd7-30">
          <mxGeometry width="50" height="50" relative="1" as="geometry">
            <mxPoint x="855" y="740" as="sourcePoint" />
            <mxPoint x="500" y="830" as="targetPoint" />
          </mxGeometry>
        </mxCell>
        <mxCell id="j7_Tk4m8kdzE1LREcDd7-37" value="ACK=1 ack=x+1" style="text;html=1;align=center;verticalAlign=middle;resizable=0;points=[];autosize=1;strokeColor=none;fillColor=none;" vertex="1" parent="1">
          <mxGeometry x="575" y="770" width="100" height="20" as="geometry" />
        </mxCell>
        <mxCell id="j7_Tk4m8kdzE1LREcDd7-38" value="FIN_WAIT1" style="text;html=1;align=center;verticalAlign=middle;resizable=0;points=[];autosize=1;strokeColor=none;fillColor=none;" vertex="1" parent="1">
          <mxGeometry x="495" y="680" width="80" height="20" as="geometry" />
        </mxCell>
        <mxCell id="j7_Tk4m8kdzE1LREcDd7-41" value="FIN_WAIT2" style="text;html=1;align=center;verticalAlign=middle;resizable=0;points=[];autosize=1;strokeColor=none;fillColor=none;" vertex="1" parent="1">
          <mxGeometry x="490" y="840" width="80" height="20" as="geometry" />
        </mxCell>
        <mxCell id="j7_Tk4m8kdzE1LREcDd7-44" value="" style="endArrow=classic;html=1;rounded=0;entryX=1;entryY=0.441;entryDx=0;entryDy=0;entryPerimeter=0;exitX=0;exitY=0.186;exitDx=0;exitDy=0;exitPerimeter=0;" edge="1" parent="1">
          <mxGeometry width="50" height="50" relative="1" as="geometry">
            <mxPoint x="860" y="810" as="sourcePoint" />
            <mxPoint x="490" y="904.3500000000001" as="targetPoint" />
          </mxGeometry>
        </mxCell>
        <mxCell id="j7_Tk4m8kdzE1LREcDd7-45" value="data" style="text;html=1;align=center;verticalAlign=middle;resizable=0;points=[];autosize=1;strokeColor=none;fillColor=none;" vertex="1" parent="1">
          <mxGeometry x="670" y="830" width="40" height="20" as="geometry" />
        </mxCell>
        <mxCell id="j7_Tk4m8kdzE1LREcDd7-46" value="" style="endArrow=classic;html=1;rounded=0;entryX=1;entryY=0.441;entryDx=0;entryDy=0;entryPerimeter=0;exitX=0;exitY=0.186;exitDx=0;exitDy=0;exitPerimeter=0;" edge="1" parent="1">
          <mxGeometry width="50" height="50" relative="1" as="geometry">
            <mxPoint x="861" y="870" as="sourcePoint" />
            <mxPoint x="491" y="964.3500000000001" as="targetPoint" />
          </mxGeometry>
        </mxCell>
        <mxCell id="j7_Tk4m8kdzE1LREcDd7-47" value="FIN=1 seq=y" style="text;html=1;align=center;verticalAlign=middle;resizable=0;points=[];autosize=1;strokeColor=none;fillColor=none;" vertex="1" parent="1">
          <mxGeometry x="660" y="880" width="80" height="20" as="geometry" />
        </mxCell>
        <mxCell id="j7_Tk4m8kdzE1LREcDd7-48" value="" style="endArrow=classic;html=1;rounded=0;entryX=0;entryY=0.93;entryDx=0;entryDy=0;entryPerimeter=0;" edge="1" parent="1" target="j7_Tk4m8kdzE1LREcDd7-31">
          <mxGeometry width="50" height="50" relative="1" as="geometry">
            <mxPoint x="490" y="1014.3500000000001" as="sourcePoint" />
            <mxPoint x="850" y="1014" as="targetPoint" />
          </mxGeometry>
        </mxCell>
        <mxCell id="j7_Tk4m8kdzE1LREcDd7-49" value="ACK=1 ack=y+1" style="text;html=1;align=center;verticalAlign=middle;resizable=0;points=[];autosize=1;strokeColor=none;fillColor=none;" vertex="1" parent="1">
          <mxGeometry x="640" y="980" width="100" height="20" as="geometry" />
        </mxCell>
        <mxCell id="j7_Tk4m8kdzE1LREcDd7-50" value="TIMED_WAIT" style="text;html=1;align=center;verticalAlign=middle;resizable=0;points=[];autosize=1;strokeColor=none;fillColor=none;" vertex="1" parent="1">
          <mxGeometry x="485" y="930" width="90" height="20" as="geometry" />
        </mxCell>
        <mxCell id="j7_Tk4m8kdzE1LREcDd7-51" value="CLOSED" style="text;html=1;align=center;verticalAlign=middle;resizable=0;points=[];autosize=1;strokeColor=none;fillColor=none;" vertex="1" parent="1">
          <mxGeometry x="495" y="990" width="60" height="20" as="geometry" />
        </mxCell>
        <mxCell id="j7_Tk4m8kdzE1LREcDd7-52" value="CLOSED" style="text;html=1;align=center;verticalAlign=middle;resizable=0;points=[];autosize=1;strokeColor=none;fillColor=none;" vertex="1" parent="1">
          <mxGeometry x="800" y="990" width="60" height="20" as="geometry" />
        </mxCell>
      </root>
    </mxGraphModel>
  </diagram>
</mxfile>
